<?xml version="1.0" encoding="UTF-8" standalone="no"?>
<!DOCTYPE svg PUBLIC "-//W3C//DTD SVG 1.1//EN"
 "http://www.w3.org/Graphics/SVG/1.1/DTD/svg11.dtd">
<!-- Generated by graphviz version 2.40.1 (20161225.0304)
 -->
<!-- Title: dependencies Pages: 1 -->
<svg width="1790pt" height="349pt"
 viewBox="0.00 0.00 1790.00 349.00" xmlns="http://www.w3.org/2000/svg" xmlns:xlink="http://www.w3.org/1999/xlink">
<g id="graph0" class="graph" transform="scale(1 1) rotate(0) translate(4 345)">
<title>dependencies</title>
<polygon fill="#ffffff" stroke="transparent" points="-4,4 -4,-345 1786,-345 1786,4 -4,4"/>
<text text-anchor="start" x="870.0091" y="-42.4" font-family="sans-serif" font-weight="bold" font-size="14.00" fill="#000000">Legend</text>
<polygon fill="#ffffb3" stroke="transparent" points="657,-10 657,-30 677,-30 677,-10 657,-10"/>
<text text-anchor="start" x="680.629" y="-15.4" font-family="sans-serif" font-size="14.00" fill="#000000"> &#160;Declarations</text>
<polygon fill="#8dd3c7" stroke="transparent" points="770,-10 770,-30 790,-30 790,-10 770,-10"/>
<text text-anchor="start" x="793.7251" y="-15.4" font-family="sans-serif" font-size="14.00" fill="#000000"> &#160;Module</text>
<polygon fill="#80b1d3" stroke="transparent" points="856,-10 856,-30 876,-30 876,-10 856,-10"/>
<text text-anchor="start" x="879.7812" y="-15.4" font-family="sans-serif" font-size="14.00" fill="#000000"> &#160;Bootstrap</text>
<polygon fill="#fdb462" stroke="transparent" points="953,-10 953,-30 973,-30 973,-10 953,-10"/>
<text text-anchor="start" x="976.6732" y="-15.4" font-family="sans-serif" font-size="14.00" fill="#000000"> &#160;Providers</text>
<polygon fill="#fb8072" stroke="transparent" points="1049,-10 1049,-30 1069,-30 1069,-10 1049,-10"/>
<text text-anchor="start" x="1072.7258" y="-15.4" font-family="sans-serif" font-size="14.00" fill="#000000"> &#160;Exports</text>
<g id="clust1" class="cluster">
<title>cluster_AppModule</title>
<polygon fill="none" stroke="#000000" stroke-dasharray="1,5" points="8,-70 8,-333 1774,-333 1774,-70 8,-70"/>
</g>
<g id="clust2" class="cluster">
<title>cluster_AppModule_declarations</title>
<polygon fill="none" stroke="#000000" points="426,-143 426,-195 1754,-195 1754,-143 426,-143"/>
</g>
<g id="clust3" class="cluster">
<title>cluster_AppModule_AppComponent_providers</title>
<polygon fill="none" stroke="#000000" points="1402,-78 1402,-130 1766,-130 1766,-78 1402,-78"/>
</g>
<g id="clust12" class="cluster">
<title>cluster_AppModule_imports</title>
<polygon fill="none" stroke="#000000" points="224,-143 224,-195 418,-195 418,-143 224,-143"/>
</g>
<g id="clust14" class="cluster">
<title>cluster_AppModule_bootstrap</title>
<polygon fill="none" stroke="#000000" points="935,-273 935,-325 1059,-325 1059,-273 935,-273"/>
</g>
<g id="clust15" class="cluster">
<title>cluster_AppModule_providers</title>
<polygon fill="none" stroke="#000000" points="16,-143 16,-195 216,-195 216,-143 16,-143"/>
</g>
<!-- AppComponent -->
<g id="node1" class="node">
<title>AppComponent</title>
<polygon fill="#ffffb3" stroke="#000000" points="1745.9399,-187 1640.0601,-187 1640.0601,-151 1745.9399,-151 1745.9399,-187"/>
<text text-anchor="middle" x="1693" y="-164.8" font-family="Times,serif" font-size="14.00" fill="#000000">AppComponent</text>
</g>
<!-- AppModule -->
<g id="node10" class="node">
<title>AppModule</title>
<polygon fill="#8dd3c7" stroke="#000000" points="1038.6571,-252 1035.6571,-256 1014.6571,-256 1011.6571,-252 955.3429,-252 955.3429,-216 1038.6571,-216 1038.6571,-252"/>
<text text-anchor="middle" x="997" y="-229.8" font-family="Times,serif" font-size="14.00" fill="#000000">AppModule</text>
</g>
<!-- AppComponent&#45;&gt;AppModule -->
<g id="edge1" class="edge">
<title>AppComponent&#45;&gt;AppModule</title>
<path fill="none" stroke="#000000" d="M1693,-187.0908C1693,-210.1328 1693,-247 1693,-247 1693,-247 1048.7117,-247 1048.7117,-247"/>
<polygon fill="#000000" stroke="#000000" points="1048.7118,-243.5001 1038.7117,-247 1048.7117,-250.5001 1048.7118,-243.5001"/>
</g>
<!-- CarouselComponent -->
<g id="node2" class="node">
<title>CarouselComponent</title>
<polygon fill="#ffffb3" stroke="#000000" points="1622.594,-187 1491.406,-187 1491.406,-151 1622.594,-151 1622.594,-187"/>
<text text-anchor="middle" x="1557" y="-164.8" font-family="Times,serif" font-size="14.00" fill="#000000">CarouselComponent</text>
</g>
<!-- CarouselComponent&#45;&gt;AppModule -->
<g id="edge4" class="edge">
<title>CarouselComponent&#45;&gt;AppModule</title>
<path fill="none" stroke="#000000" d="M1557,-187.2228C1557,-207.3652 1557,-237 1557,-237 1557,-237 1049.091,-237 1049.091,-237"/>
<polygon fill="#000000" stroke="#000000" points="1049.0911,-233.5001 1039.091,-237 1049.091,-240.5001 1049.0911,-233.5001"/>
</g>
<!-- LoginComponent -->
<g id="node3" class="node">
<title>LoginComponent</title>
<polygon fill="#ffffb3" stroke="#000000" points="1473.2758,-187 1358.7242,-187 1358.7242,-151 1473.2758,-151 1473.2758,-187"/>
<text text-anchor="middle" x="1416" y="-164.8" font-family="Times,serif" font-size="14.00" fill="#000000">LoginComponent</text>
</g>
<!-- LoginComponent&#45;&gt;AppModule -->
<g id="edge5" class="edge">
<title>LoginComponent&#45;&gt;AppModule</title>
<path fill="none" stroke="#000000" d="M1416,-187.2222C1416,-205.8285 1416,-232 1416,-232 1416,-232 1048.7072,-232 1048.7072,-232"/>
<polygon fill="#000000" stroke="#000000" points="1048.7072,-228.5001 1038.7072,-232 1048.7071,-235.5001 1048.7072,-228.5001"/>
</g>
<!-- SignupComponent -->
<g id="node4" class="node">
<title>SignupComponent</title>
<polygon fill="#ffffb3" stroke="#000000" points="1340.5056,-187 1219.4944,-187 1219.4944,-151 1340.5056,-151 1340.5056,-187"/>
<text text-anchor="middle" x="1280" y="-164.8" font-family="Times,serif" font-size="14.00" fill="#000000">SignupComponent</text>
</g>
<!-- SignupComponent&#45;&gt;AppModule -->
<g id="edge6" class="edge">
<title>SignupComponent&#45;&gt;AppModule</title>
<path fill="none" stroke="#000000" d="M1280,-187.0336C1280,-204.0597 1280,-227 1280,-227 1280,-227 1048.7576,-227 1048.7576,-227"/>
<polygon fill="#000000" stroke="#000000" points="1048.7577,-223.5001 1038.7576,-227 1048.7576,-230.5001 1048.7577,-223.5001"/>
</g>
<!-- HelpComponent -->
<g id="node5" class="node">
<title>HelpComponent</title>
<polygon fill="#ffffb3" stroke="#000000" points="1201.0452,-187 1092.9548,-187 1092.9548,-151 1201.0452,-151 1201.0452,-187"/>
<text text-anchor="middle" x="1147" y="-164.8" font-family="Times,serif" font-size="14.00" fill="#000000">HelpComponent</text>
</g>
<!-- HelpComponent&#45;&gt;AppModule -->
<g id="edge7" class="edge">
<title>HelpComponent&#45;&gt;AppModule</title>
<path fill="none" stroke="#000000" d="M1147,-187.2396C1147,-202.5706 1147,-222 1147,-222 1147,-222 1048.7834,-222 1048.7834,-222"/>
<polygon fill="#000000" stroke="#000000" points="1048.7834,-218.5001 1038.7834,-222 1048.7833,-225.5001 1048.7834,-218.5001"/>
</g>
<!-- ListingDetailComponent -->
<g id="node6" class="node">
<title>ListingDetailComponent</title>
<polygon fill="#ffffb3" stroke="#000000" points="1074.7091,-187 919.2909,-187 919.2909,-151 1074.7091,-151 1074.7091,-187"/>
<text text-anchor="middle" x="997" y="-164.8" font-family="Times,serif" font-size="14.00" fill="#000000">ListingDetailComponent</text>
</g>
<!-- ListingDetailComponent&#45;&gt;AppModule -->
<g id="edge8" class="edge">
<title>ListingDetailComponent&#45;&gt;AppModule</title>
<path fill="none" stroke="#000000" d="M997,-187.1061C997,-187.1061 997,-205.991 997,-205.991"/>
<polygon fill="#000000" stroke="#000000" points="993.5001,-205.9909 997,-215.991 1000.5001,-205.991 993.5001,-205.9909"/>
</g>
<!-- HomeComponent -->
<g id="node7" class="node">
<title>HomeComponent</title>
<polygon fill="#ffffb3" stroke="#000000" points="901.5451,-187 786.4549,-187 786.4549,-151 901.5451,-151 901.5451,-187"/>
<text text-anchor="middle" x="844" y="-164.8" font-family="Times,serif" font-size="14.00" fill="#000000">HomeComponent</text>
</g>
<!-- HomeComponent&#45;&gt;AppModule -->
<g id="edge9" class="edge">
<title>HomeComponent&#45;&gt;AppModule</title>
<path fill="none" stroke="#000000" d="M844,-187.2396C844,-202.5706 844,-222 844,-222 844,-222 945.1921,-222 945.1921,-222"/>
<polygon fill="#000000" stroke="#000000" points="945.1921,-225.5001 955.1921,-222 945.192,-218.5001 945.1921,-225.5001"/>
</g>
<!-- AddSubleaseFormComponent -->
<g id="node8" class="node">
<title>AddSubleaseFormComponent</title>
<polygon fill="#ffffb3" stroke="#000000" points="767.535,-187 582.465,-187 582.465,-151 767.535,-151 767.535,-187"/>
<text text-anchor="middle" x="675" y="-164.8" font-family="Times,serif" font-size="14.00" fill="#000000">AddSubleaseFormComponent</text>
</g>
<!-- AddSubleaseFormComponent&#45;&gt;AppModule -->
<g id="edge10" class="edge">
<title>AddSubleaseFormComponent&#45;&gt;AppModule</title>
<path fill="none" stroke="#000000" d="M675,-187.0336C675,-204.0597 675,-227 675,-227 675,-227 945.2342,-227 945.2342,-227"/>
<polygon fill="#000000" stroke="#000000" points="945.2343,-230.5001 955.2342,-227 945.2342,-223.5001 945.2343,-230.5001"/>
</g>
<!-- UserListComponent -->
<g id="node9" class="node">
<title>UserListComponent</title>
<polygon fill="#ffffb3" stroke="#000000" points="563.538,-187 434.462,-187 434.462,-151 563.538,-151 563.538,-187"/>
<text text-anchor="middle" x="499" y="-164.8" font-family="Times,serif" font-size="14.00" fill="#000000">UserListComponent</text>
</g>
<!-- UserListComponent&#45;&gt;AppModule -->
<g id="edge11" class="edge">
<title>UserListComponent&#45;&gt;AppModule</title>
<path fill="none" stroke="#000000" d="M499,-187.2222C499,-205.8285 499,-232 499,-232 499,-232 944.97,-232 944.97,-232"/>
<polygon fill="#000000" stroke="#000000" points="944.97,-235.5001 954.97,-232 944.97,-228.5001 944.97,-235.5001"/>
</g>
<!-- AppComponent  -->
<g id="node15" class="node">
<title>AppComponent </title>
<polygon fill="#80b1d3" stroke="#000000" points="1051.439,-317 942.561,-317 942.561,-281 1051.439,-281 1051.439,-317"/>
<text text-anchor="middle" x="997" y="-294.8" font-family="Times,serif" font-size="14.00" fill="#000000">AppComponent </text>
</g>
<!-- AppModule&#45;&gt;AppComponent  -->
<g id="edge14" class="edge">
<title>AppModule&#45;&gt;AppComponent </title>
<path fill="none" stroke="#000000" stroke-dasharray="1,5" d="M997,-252.1061C997,-252.1061 997,-270.991 997,-270.991"/>
<polygon fill="#000000" stroke="#000000" points="993.5001,-270.9909 997,-280.991 1000.5001,-270.991 993.5001,-270.9909"/>
</g>
<!-- AuthenticationService -->
<g id="node11" class="node">
<title>AuthenticationService</title>
<ellipse fill="#fdb462" stroke="#000000" cx="1661" cy="-104" rx="97.2683" ry="18"/>
<text text-anchor="middle" x="1661" y="-99.8" font-family="Times,serif" font-size="14.00" fill="#000000">AuthenticationService</text>
</g>
<!-- AuthenticationService&#45;&gt;AppComponent -->
<g id="edge2" class="edge">
<title>AuthenticationService&#45;&gt;AppComponent</title>
<path fill="none" stroke="#000000" d="M1710.5732,-119.7347C1710.5732,-119.7347 1710.5732,-140.6451 1710.5732,-140.6451"/>
<polygon fill="#000000" stroke="#000000" points="1707.0733,-140.645 1710.5732,-150.6451 1714.0733,-140.6451 1707.0733,-140.645"/>
</g>
<!-- AuthenticationService&#45;&gt;AppModule -->
<g id="edge16" class="edge">
<title>AuthenticationService&#45;&gt;AppModule</title>
<path fill="none" stroke="#000000" d="M1631.4138,-121.1988C1631.4138,-158.1921 1631.4138,-242 1631.4138,-242 1631.4138,-242 1049.117,-242 1049.117,-242"/>
<polygon fill="#000000" stroke="#000000" points="1049.117,-238.5001 1039.117,-242 1049.1169,-245.5001 1049.117,-238.5001"/>
</g>
<!-- CookieService -->
<g id="node12" class="node">
<title>CookieService</title>
<ellipse fill="#fdb462" stroke="#000000" cx="1478" cy="-104" rx="67.776" ry="18"/>
<text text-anchor="middle" x="1478" y="-99.8" font-family="Times,serif" font-size="14.00" fill="#000000">CookieService</text>
</g>
<!-- CookieService&#45;&gt;AppComponent -->
<g id="edge3" class="edge">
<title>CookieService&#45;&gt;AppComponent</title>
<path fill="none" stroke="#000000" d="M1518.6705,-118.5703C1518.6705,-127.4106 1518.6705,-137 1518.6705,-137 1518.6705,-137 1675.4268,-137 1675.4268,-137 1675.4268,-137 1675.4268,-140.7566 1675.4268,-140.7566"/>
<polygon fill="#000000" stroke="#000000" points="1671.9269,-140.7566 1675.4268,-150.7566 1678.9269,-140.7566 1671.9269,-140.7566"/>
</g>
<!-- MaterialModule -->
<g id="node13" class="node">
<title>MaterialModule</title>
<polygon fill="#8dd3c7" stroke="#000000" points="410.4706,-187 407.4706,-191 386.4706,-191 383.4706,-187 303.5294,-187 303.5294,-151 410.4706,-151 410.4706,-187"/>
<text text-anchor="middle" x="357" y="-164.8" font-family="Times,serif" font-size="14.00" fill="#000000">MaterialModule</text>
</g>
<!-- MaterialModule&#45;&gt;AppModule -->
<g id="edge12" class="edge">
<title>MaterialModule&#45;&gt;AppModule</title>
<path fill="none" stroke="#000000" d="M357,-187.2228C357,-207.3652 357,-237 357,-237 357,-237 945.0078,-237 945.0078,-237"/>
<polygon fill="#000000" stroke="#000000" points="945.0078,-240.5001 955.0078,-237 945.0078,-233.5001 945.0078,-240.5001"/>
</g>
<!-- routes -->
<g id="node14" class="node">
<title>routes</title>
<polygon fill="#8dd3c7" stroke="#000000" points="286,-187 283,-191 262,-191 259,-187 232,-187 232,-151 286,-151 286,-187"/>
<text text-anchor="middle" x="259" y="-164.8" font-family="Times,serif" font-size="14.00" fill="#000000">routes</text>
</g>
<!-- routes&#45;&gt;AppModule -->
<g id="edge13" class="edge">
<title>routes&#45;&gt;AppModule</title>
<path fill="none" stroke="#000000" d="M259,-187.0449C259,-208.6623 259,-242 259,-242 259,-242 945.2074,-242 945.2074,-242"/>
<polygon fill="#000000" stroke="#000000" points="945.2074,-245.5001 955.2074,-242 945.2074,-238.5001 945.2074,-245.5001"/>
</g>
<!-- HouseListingService -->
<g id="node16" class="node">
<title>HouseListingService</title>
<ellipse fill="#fdb462" stroke="#000000" cx="116" cy="-169" rx="92.0509" ry="18"/>
<text text-anchor="middle" x="116" y="-164.8" font-family="Times,serif" font-size="14.00" fill="#000000">HouseListingService</text>
</g>
<!-- HouseListingService&#45;&gt;AppModule -->
<g id="edge15" class="edge">
<title>HouseListingService&#45;&gt;AppModule</title>
<path fill="none" stroke="#000000" d="M116,-187.0908C116,-210.1328 116,-247 116,-247 116,-247 945.1002,-247 945.1002,-247"/>
<polygon fill="#000000" stroke="#000000" points="945.1003,-250.5001 955.1002,-247 945.1002,-243.5001 945.1003,-250.5001"/>
</g>
</g>
</svg>
